solid generated
  facet normal 0.0 0.0 -625.0
    outer loop
      vertex -12.5 -12.5 -12.5
      vertex 12.5 12.5 -12.5
      vertex 12.5 -12.5 -12.5
    endloop
  endfacet
  facet normal 0.0 0.0 -625.0
    outer loop
      vertex -12.5 -12.5 -12.5
      vertex -12.5 12.5 -12.5
      vertex 12.5 12.5 -12.5
    endloop
  endfacet
  facet normal 0.0 0.0 625.0
    outer loop
      vertex -12.5 -12.5 12.5
      vertex 12.5 -12.5 12.5
      vertex 12.5 12.5 12.5
    endloop
  endfacet
  facet normal 0.0 0.0 625.0
    outer loop
      vertex -12.5 -12.5 12.5
      vertex 12.5 12.5 12.5
      vertex -12.5 12.5 12.5
    endloop
  endfacet
  facet normal 0.0 -625.0 0.0
    outer loop
      vertex -12.5 -12.5 -12.5
      vertex 12.5 -12.5 -12.5
      vertex 12.5 -12.5 12.5
    endloop
  endfacet
  facet normal 0.0 -625.0 0.0
    outer loop
      vertex -12.5 -12.5 -12.5
      vertex 12.5 -12.5 12.5
      vertex -12.5 -12.5 12.5
    endloop
  endfacet
  facet normal 0.0 625.0 0.0
    outer loop
      vertex 12.5 12.5 -12.5
      vertex -12.5 12.5 -12.5
      vertex -12.5 12.5 12.5
    endloop
  endfacet
  facet normal 0.0 625.0 -0.0
    outer loop
      vertex 12.5 12.5 -12.5
      vertex -12.5 12.5 12.5
      vertex 12.5 12.5 12.5
    endloop
  endfacet
  facet normal -625.0 0.0 0.0
    outer loop
      vertex -12.5 -12.5 -12.5
      vertex -12.5 -12.5 12.5
      vertex -12.5 12.5 12.5
    endloop
  endfacet
  facet normal -625.0 0.0 0.0
    outer loop
      vertex -12.5 -12.5 -12.5
      vertex -12.5 12.5 12.5
      vertex -12.5 12.5 -12.5
    endloop
  endfacet
  facet normal 625.0 0.0 0.0
    outer loop
      vertex 12.5 -12.5 -12.5
      vertex 12.5 12.5 -12.5
      vertex 12.5 12.5 12.5
    endloop
  endfacet
  facet normal 625.0 0.0 0.0
    outer loop
      vertex 12.5 -12.5 -12.5
      vertex 12.5 12.5 12.5
      vertex 12.5 -12.5 12.5
    endloop
  endfacet
endsolid generated
