solid generated
  facet normal -0.9951847266721968 0.0 -0.0980171403295607
    outer loop
      vertex 2.0 -5.0 0.0
      vertex 1.9615705608064609 -5.0 0.3901806440322565
      vertex 1.9615705608064609 5.0 0.3901806440322565
    endloop
  endfacet
  facet normal -0.9951847266721968 0.0 -0.0980171403295607
    outer loop
      vertex 2.0 -5.0 0.0
      vertex 1.9615705608064609 5.0 0.3901806440322565
      vertex 2.0 5.0 0.0
    endloop
  endfacet
  facet normal -0.9569403357322089 0.0 -0.29028467725446233
    outer loop
      vertex 1.9615705608064609 -5.0 0.3901806440322565
      vertex 1.8477590650225735 -5.0 0.7653668647301796
      vertex 1.8477590650225735 5.0 0.7653668647301796
    endloop
  endfacet
  facet normal -0.9569403357322089 0.0 -0.29028467725446233
    outer loop
      vertex 1.9615705608064609 -5.0 0.3901806440322565
      vertex 1.8477590650225735 5.0 0.7653668647301796
      vertex 1.9615705608064609 5.0 0.3901806440322565
    endloop
  endfacet
  facet normal -0.881921264348355 0.0 -0.47139673682599775
    outer loop
      vertex 1.8477590650225735 -5.0 0.7653668647301796
      vertex 1.6629392246050905 -5.0 1.1111404660392044
      vertex 1.6629392246050905 5.0 1.1111404660392044
    endloop
  endfacet
  facet normal -0.881921264348355 0.0 -0.47139673682599775
    outer loop
      vertex 1.8477590650225735 -5.0 0.7653668647301796
      vertex 1.6629392246050905 5.0 1.1111404660392044
      vertex 1.8477590650225735 5.0 0.7653668647301796
    endloop
  endfacet
  facet normal -0.773010453362737 0.0 -0.6343932841636454
    outer loop
      vertex 1.6629392246050905 -5.0 1.1111404660392044
      vertex 1.4142135623730951 -5.0 1.414213562373095
      vertex 1.4142135623730951 5.0 1.414213562373095
    endloop
  endfacet
  facet normal -0.773010453362737 0.0 -0.6343932841636454
    outer loop
      vertex 1.6629392246050905 -5.0 1.1111404660392044
      vertex 1.4142135623730951 5.0 1.414213562373095
      vertex 1.6629392246050905 5.0 1.1111404660392044
    endloop
  endfacet
  facet normal -0.6343932841636457 0.0 -0.7730104533627368
    outer loop
      vertex 1.4142135623730951 -5.0 1.414213562373095
      vertex 1.1111404660392046 -5.0 1.6629392246050905
      vertex 1.1111404660392046 5.0 1.6629392246050905
    endloop
  endfacet
  facet normal -0.6343932841636457 0.0 -0.7730104533627368
    outer loop
      vertex 1.4142135623730951 -5.0 1.414213562373095
      vertex 1.1111404660392046 5.0 1.6629392246050905
      vertex 1.4142135623730951 5.0 1.414213562373095
    endloop
  endfacet
  facet normal -0.47139673682599753 0.0 -0.881921264348355
    outer loop
      vertex 1.1111404660392046 -5.0 1.6629392246050905
      vertex 0.7653668647301797 -5.0 1.8477590650225735
      vertex 0.7653668647301797 5.0 1.8477590650225735
    endloop
  endfacet
  facet normal -0.47139673682599753 0.0 -0.881921264348355
    outer loop
      vertex 1.1111404660392046 -5.0 1.6629392246050905
      vertex 0.7653668647301797 5.0 1.8477590650225735
      vertex 1.1111404660392046 5.0 1.6629392246050905
    endloop
  endfacet
  facet normal -0.29028467725446233 0.0 -0.9569403357322089
    outer loop
      vertex 0.7653668647301797 -5.0 1.8477590650225735
      vertex 0.39018064403225666 -5.0 1.9615705608064609
      vertex 0.39018064403225666 5.0 1.9615705608064609
    endloop
  endfacet
  facet normal -0.29028467725446233 0.0 -0.9569403357322089
    outer loop
      vertex 0.7653668647301797 -5.0 1.8477590650225735
      vertex 0.39018064403225666 5.0 1.9615705608064609
      vertex 0.7653668647301797 5.0 1.8477590650225735
    endloop
  endfacet
  facet normal -0.09801714032956069 0.0 -0.9951847266721968
    outer loop
      vertex 0.39018064403225666 -5.0 1.9615705608064609
      vertex 1.2246467991473532e-16 -5.0 2.0
      vertex 1.2246467991473532e-16 5.0 2.0
    endloop
  endfacet
  facet normal -0.09801714032956069 0.0 -0.9951847266721968
    outer loop
      vertex 0.39018064403225666 -5.0 1.9615705608064609
      vertex 1.2246467991473532e-16 5.0 2.0
      vertex 0.39018064403225666 5.0 1.9615705608064609
    endloop
  endfacet
  facet normal 0.0980171403295607 0.0 -0.9951847266721968
    outer loop
      vertex 1.2246467991473532e-16 -5.0 2.0
      vertex -0.3901806440322564 -5.0 1.9615705608064609
      vertex -0.3901806440322564 5.0 1.9615705608064609
    endloop
  endfacet
  facet normal 0.0980171403295607 0.0 -0.9951847266721968
    outer loop
      vertex 1.2246467991473532e-16 -5.0 2.0
      vertex -0.3901806440322564 5.0 1.9615705608064609
      vertex 1.2246467991473532e-16 5.0 2.0
    endloop
  endfacet
  facet normal 0.29028467725446233 0.0 -0.9569403357322089
    outer loop
      vertex -0.3901806440322564 -5.0 1.9615705608064609
      vertex -0.7653668647301795 -5.0 1.8477590650225735
      vertex -0.7653668647301795 5.0 1.8477590650225735
    endloop
  endfacet
  facet normal 0.29028467725446233 0.0 -0.9569403357322089
    outer loop
      vertex -0.3901806440322564 -5.0 1.9615705608064609
      vertex -0.7653668647301795 5.0 1.8477590650225735
      vertex -0.3901806440322564 5.0 1.9615705608064609
    endloop
  endfacet
  facet normal 0.4713967368259972 0.0 -0.8819212643483553
    outer loop
      vertex -0.7653668647301795 -5.0 1.8477590650225735
      vertex -1.111140466039204 -5.0 1.662939224605091
      vertex -1.111140466039204 5.0 1.662939224605091
    endloop
  endfacet
  facet normal 0.4713967368259972 0.0 -0.8819212643483553
    outer loop
      vertex -0.7653668647301795 -5.0 1.8477590650225735
      vertex -1.111140466039204 5.0 1.662939224605091
      vertex -0.7653668647301795 5.0 1.8477590650225735
    endloop
  endfacet
  facet normal 0.6343932841636455 0.0 -0.773010453362737
    outer loop
      vertex -1.111140466039204 -5.0 1.662939224605091
      vertex -1.414213562373095 -5.0 1.4142135623730951
      vertex -1.414213562373095 5.0 1.4142135623730951
    endloop
  endfacet
  facet normal 0.6343932841636455 0.0 -0.773010453362737
    outer loop
      vertex -1.111140466039204 -5.0 1.662939224605091
      vertex -1.414213562373095 5.0 1.4142135623730951
      vertex -1.111140466039204 5.0 1.662939224605091
    endloop
  endfacet
  facet normal 0.7730104533627368 0.0 -0.6343932841636458
    outer loop
      vertex -1.414213562373095 -5.0 1.4142135623730951
      vertex -1.6629392246050907 -5.0 1.1111404660392044
      vertex -1.6629392246050907 5.0 1.1111404660392044
    endloop
  endfacet
  facet normal 0.7730104533627368 0.0 -0.6343932841636458
    outer loop
      vertex -1.414213562373095 -5.0 1.4142135623730951
      vertex -1.6629392246050907 5.0 1.1111404660392044
      vertex -1.414213562373095 5.0 1.4142135623730951
    endloop
  endfacet
  facet normal 0.8819212643483552 0.0 -0.4713967368259975
    outer loop
      vertex -1.6629392246050907 -5.0 1.1111404660392044
      vertex -1.8477590650225735 -5.0 0.7653668647301798
      vertex -1.8477590650225735 5.0 0.7653668647301798
    endloop
  endfacet
  facet normal 0.8819212643483552 0.0 -0.4713967368259975
    outer loop
      vertex -1.6629392246050907 -5.0 1.1111404660392044
      vertex -1.8477590650225735 5.0 0.7653668647301798
      vertex -1.6629392246050907 5.0 1.1111404660392044
    endloop
  endfacet
  facet normal 0.9569403357322087 0.0 -0.29028467725446266
    outer loop
      vertex -1.8477590650225735 -5.0 0.7653668647301798
      vertex -1.9615705608064609 -5.0 0.3901806440322572
      vertex -1.9615705608064609 5.0 0.3901806440322572
    endloop
  endfacet
  facet normal 0.9569403357322087 0.0 -0.29028467725446266
    outer loop
      vertex -1.8477590650225735 -5.0 0.7653668647301798
      vertex -1.9615705608064609 5.0 0.3901806440322572
      vertex -1.8477590650225735 5.0 0.7653668647301798
    endloop
  endfacet
  facet normal 0.9951847266721968 0.0 -0.09801714032956058
    outer loop
      vertex -1.9615705608064609 -5.0 0.3901806440322572
      vertex -2.0 -5.0 2.4492935982947064e-16
      vertex -2.0 5.0 2.4492935982947064e-16
    endloop
  endfacet
  facet normal 0.9951847266721968 0.0 -0.09801714032956058
    outer loop
      vertex -1.9615705608064609 -5.0 0.3901806440322572
      vertex -2.0 5.0 2.4492935982947064e-16
      vertex -1.9615705608064609 5.0 0.3901806440322572
    endloop
  endfacet
  facet normal 0.9951847266721968 0.0 0.09801714032956059
    outer loop
      vertex -2.0 -5.0 2.4492935982947064e-16
      vertex -1.9615705608064609 -5.0 -0.3901806440322567
      vertex -1.9615705608064609 5.0 -0.3901806440322567
    endloop
  endfacet
  facet normal 0.9951847266721968 -0.0 0.09801714032956059
    outer loop
      vertex -2.0 -5.0 2.4492935982947064e-16
      vertex -1.9615705608064609 5.0 -0.3901806440322567
      vertex -2.0 5.0 2.4492935982947064e-16
    endloop
  endfacet
  facet normal 0.9569403357322089 0.0 0.2902846772544621
    outer loop
      vertex -1.9615705608064609 -5.0 -0.3901806440322567
      vertex -1.8477590650225737 -5.0 -0.7653668647301793
      vertex -1.8477590650225737 5.0 -0.7653668647301793
    endloop
  endfacet
  facet normal 0.9569403357322089 -0.0 0.2902846772544621
    outer loop
      vertex -1.9615705608064609 -5.0 -0.3901806440322567
      vertex -1.8477590650225737 5.0 -0.7653668647301793
      vertex -1.9615705608064609 5.0 -0.3901806440322567
    endloop
  endfacet
  facet normal 0.8819212643483552 0.0 0.4713967368259975
    outer loop
      vertex -1.8477590650225737 -5.0 -0.7653668647301793
      vertex -1.662939224605091 -5.0 -1.111140466039204
      vertex -1.662939224605091 5.0 -1.111140466039204
    endloop
  endfacet
  facet normal 0.8819212643483552 -0.0 0.4713967368259975
    outer loop
      vertex -1.8477590650225737 -5.0 -0.7653668647301793
      vertex -1.662939224605091 5.0 -1.111140466039204
      vertex -1.8477590650225737 5.0 -0.7653668647301793
    endloop
  endfacet
  facet normal 0.7730104533627372 0.0 0.6343932841636452
    outer loop
      vertex -1.662939224605091 -5.0 -1.111140466039204
      vertex -1.4142135623730954 -5.0 -1.414213562373095
      vertex -1.4142135623730954 5.0 -1.414213562373095
    endloop
  endfacet
  facet normal 0.7730104533627372 -0.0 0.6343932841636452
    outer loop
      vertex -1.662939224605091 -5.0 -1.111140466039204
      vertex -1.4142135623730954 5.0 -1.414213562373095
      vertex -1.662939224605091 5.0 -1.111140466039204
    endloop
  endfacet
  facet normal 0.6343932841636452 0.0 0.7730104533627372
    outer loop
      vertex -1.4142135623730954 -5.0 -1.414213562373095
      vertex -1.1111404660392044 -5.0 -1.6629392246050905
      vertex -1.1111404660392044 5.0 -1.6629392246050905
    endloop
  endfacet
  facet normal 0.6343932841636452 -0.0 0.7730104533627372
    outer loop
      vertex -1.4142135623730954 -5.0 -1.414213562373095
      vertex -1.1111404660392044 5.0 -1.6629392246050905
      vertex -1.4142135623730954 5.0 -1.414213562373095
    endloop
  endfacet
  facet normal 0.471396736825998 0.0 0.8819212643483548
    outer loop
      vertex -1.1111404660392044 -5.0 -1.6629392246050905
      vertex -0.7653668647301807 -5.0 -1.847759065022573
      vertex -0.7653668647301807 5.0 -1.847759065022573
    endloop
  endfacet
  facet normal 0.471396736825998 -0.0 0.8819212643483548
    outer loop
      vertex -1.1111404660392044 -5.0 -1.6629392246050905
      vertex -0.7653668647301807 5.0 -1.847759065022573
      vertex -1.1111404660392044 5.0 -1.6629392246050905
    endloop
  endfacet
  facet normal 0.29028467725446266 0.0 0.9569403357322088
    outer loop
      vertex -0.7653668647301807 -5.0 -1.847759065022573
      vertex -0.39018064403225733 -5.0 -1.9615705608064606
      vertex -0.39018064403225733 5.0 -1.9615705608064606
    endloop
  endfacet
  facet normal 0.29028467725446266 -0.0 0.9569403357322088
    outer loop
      vertex -0.7653668647301807 -5.0 -1.847759065022573
      vertex -0.39018064403225733 5.0 -1.9615705608064606
      vertex -0.7653668647301807 5.0 -1.847759065022573
    endloop
  endfacet
  facet normal 0.09801714032956116 0.0 0.9951847266721968
    outer loop
      vertex -0.39018064403225733 -5.0 -1.9615705608064606
      vertex -3.6739403974420594e-16 -5.0 -2.0
      vertex -3.6739403974420594e-16 5.0 -2.0
    endloop
  endfacet
  facet normal 0.09801714032956116 -0.0 0.9951847266721968
    outer loop
      vertex -0.39018064403225733 -5.0 -1.9615705608064606
      vertex -3.6739403974420594e-16 5.0 -2.0
      vertex -0.39018064403225733 5.0 -1.9615705608064606
    endloop
  endfacet
  facet normal -0.09801714032956058 0.0 0.9951847266721968
    outer loop
      vertex -3.6739403974420594e-16 -5.0 -2.0
      vertex 0.3901806440322566 -5.0 -1.9615705608064609
      vertex 0.3901806440322566 5.0 -1.9615705608064609
    endloop
  endfacet
  facet normal -0.09801714032956058 0.0 0.9951847266721968
    outer loop
      vertex -3.6739403974420594e-16 -5.0 -2.0
      vertex 0.3901806440322566 5.0 -1.9615705608064609
      vertex -3.6739403974420594e-16 5.0 -2.0
    endloop
  endfacet
  facet normal -0.2902846772544626 0.0 0.9569403357322088
    outer loop
      vertex 0.3901806440322566 -5.0 -1.9615705608064609
      vertex 0.76536686473018 -5.0 -1.8477590650225733
      vertex 0.76536686473018 5.0 -1.8477590650225733
    endloop
  endfacet
  facet normal -0.2902846772544626 0.0 0.9569403357322088
    outer loop
      vertex 0.3901806440322566 -5.0 -1.9615705608064609
      vertex 0.76536686473018 5.0 -1.8477590650225733
      vertex 0.3901806440322566 5.0 -1.9615705608064609
    endloop
  endfacet
  facet normal -0.4713967368259976 0.0 0.8819212643483552
    outer loop
      vertex 0.76536686473018 -5.0 -1.8477590650225733
      vertex 1.1111404660392037 -5.0 -1.662939224605091
      vertex 1.1111404660392037 5.0 -1.662939224605091
    endloop
  endfacet
  facet normal -0.4713967368259976 0.0 0.8819212643483552
    outer loop
      vertex 0.76536686473018 -5.0 -1.8477590650225733
      vertex 1.1111404660392037 5.0 -1.662939224605091
      vertex 0.76536686473018 5.0 -1.8477590650225733
    endloop
  endfacet
  facet normal -0.6343932841636452 0.0 0.7730104533627372
    outer loop
      vertex 1.1111404660392037 -5.0 -1.662939224605091
      vertex 1.4142135623730947 -5.0 -1.4142135623730954
      vertex 1.4142135623730947 5.0 -1.4142135623730954
    endloop
  endfacet
  facet normal -0.6343932841636452 0.0 0.7730104533627372
    outer loop
      vertex 1.1111404660392037 -5.0 -1.662939224605091
      vertex 1.4142135623730947 5.0 -1.4142135623730954
      vertex 1.1111404660392037 5.0 -1.662939224605091
    endloop
  endfacet
  facet normal -0.773010453362737 0.0 0.6343932841636455
    outer loop
      vertex 1.4142135623730947 -5.0 -1.4142135623730954
      vertex 1.6629392246050905 -5.0 -1.1111404660392044
      vertex 1.6629392246050905 5.0 -1.1111404660392044
    endloop
  endfacet
  facet normal -0.773010453362737 0.0 0.6343932841636455
    outer loop
      vertex 1.4142135623730947 -5.0 -1.4142135623730954
      vertex 1.6629392246050905 5.0 -1.1111404660392044
      vertex 1.4142135623730947 5.0 -1.4142135623730954
    endloop
  endfacet
  facet normal -0.8819212643483548 0.0 0.47139673682599814
    outer loop
      vertex 1.6629392246050905 -5.0 -1.1111404660392044
      vertex 1.847759065022573 -5.0 -0.7653668647301808
      vertex 1.847759065022573 5.0 -0.7653668647301808
    endloop
  endfacet
  facet normal -0.8819212643483548 0.0 0.47139673682599814
    outer loop
      vertex 1.6629392246050905 -5.0 -1.1111404660392044
      vertex 1.847759065022573 5.0 -0.7653668647301808
      vertex 1.6629392246050905 5.0 -1.1111404660392044
    endloop
  endfacet
  facet normal -0.9569403357322088 0.0 0.29028467725446266
    outer loop
      vertex 1.847759065022573 -5.0 -0.7653668647301808
      vertex 1.9615705608064606 -5.0 -0.39018064403225744
      vertex 1.9615705608064606 5.0 -0.39018064403225744
    endloop
  endfacet
  facet normal -0.9569403357322088 0.0 0.29028467725446266
    outer loop
      vertex 1.847759065022573 -5.0 -0.7653668647301808
      vertex 1.9615705608064606 5.0 -0.39018064403225744
      vertex 1.847759065022573 5.0 -0.7653668647301808
    endloop
  endfacet
  facet normal -0.9951847266721968 0.0 0.09801714032956103
    outer loop
      vertex 1.9615705608064606 -5.0 -0.39018064403225744
      vertex 2.0 -5.0 0.0
      vertex 2.0 5.0 0.0
    endloop
  endfacet
  facet normal -0.9951847266721968 0.0 0.09801714032956103
    outer loop
      vertex 1.9615705608064606 -5.0 -0.39018064403225744
      vertex 2.0 5.0 0.0
      vertex 1.9615705608064606 5.0 -0.39018064403225744
    endloop
  endfacet
  facet normal 0.0 1.0 0.0
    outer loop
      vertex 2.0 -5.0 0.0
      vertex 0.0 -5.0 0.0
      vertex 1.9615705608064609 -5.0 0.3901806440322565
    endloop
  endfacet
  facet normal 0.0 -1.0 -0.0
    outer loop
      vertex 1.9615705608064609 5.0 0.3901806440322565
      vertex 0.0 5.0 0.0
      vertex 2.0 5.0 0.0
    endloop
  endfacet
  facet normal 0.0 1.0 0.0
    outer loop
      vertex 1.9615705608064609 -5.0 0.3901806440322565
      vertex 0.0 -5.0 0.0
      vertex 1.8477590650225735 -5.0 0.7653668647301796
    endloop
  endfacet
  facet normal 0.0 -1.0 -0.0
    outer loop
      vertex 1.8477590650225735 5.0 0.7653668647301796
      vertex 0.0 5.0 0.0
      vertex 1.9615705608064609 5.0 0.3901806440322565
    endloop
  endfacet
  facet normal 0.0 1.0 0.0
    outer loop
      vertex 1.8477590650225735 -5.0 0.7653668647301796
      vertex 0.0 -5.0 0.0
      vertex 1.6629392246050905 -5.0 1.1111404660392044
    endloop
  endfacet
  facet normal 0.0 -1.0 -0.0
    outer loop
      vertex 1.6629392246050905 5.0 1.1111404660392044
      vertex 0.0 5.0 0.0
      vertex 1.8477590650225735 5.0 0.7653668647301796
    endloop
  endfacet
  facet normal 0.0 1.0 0.0
    outer loop
      vertex 1.6629392246050905 -5.0 1.1111404660392044
      vertex 0.0 -5.0 0.0
      vertex 1.4142135623730951 -5.0 1.414213562373095
    endloop
  endfacet
  facet normal 0.0 -1.0 -0.0
    outer loop
      vertex 1.4142135623730951 5.0 1.414213562373095
      vertex 0.0 5.0 0.0
      vertex 1.6629392246050905 5.0 1.1111404660392044
    endloop
  endfacet
  facet normal 0.0 1.0 0.0
    outer loop
      vertex 1.4142135623730951 -5.0 1.414213562373095
      vertex 0.0 -5.0 0.0
      vertex 1.1111404660392046 -5.0 1.6629392246050905
    endloop
  endfacet
  facet normal 0.0 -1.0 -0.0
    outer loop
      vertex 1.1111404660392046 5.0 1.6629392246050905
      vertex 0.0 5.0 0.0
      vertex 1.4142135623730951 5.0 1.414213562373095
    endloop
  endfacet
  facet normal 0.0 1.0 0.0
    outer loop
      vertex 1.1111404660392046 -5.0 1.6629392246050905
      vertex 0.0 -5.0 0.0
      vertex 0.7653668647301797 -5.0 1.8477590650225735
    endloop
  endfacet
  facet normal 0.0 -1.0 -0.0
    outer loop
      vertex 0.7653668647301797 5.0 1.8477590650225735
      vertex 0.0 5.0 0.0
      vertex 1.1111404660392046 5.0 1.6629392246050905
    endloop
  endfacet
  facet normal 0.0 1.0 0.0
    outer loop
      vertex 0.7653668647301797 -5.0 1.8477590650225735
      vertex 0.0 -5.0 0.0
      vertex 0.39018064403225666 -5.0 1.9615705608064609
    endloop
  endfacet
  facet normal 0.0 -1.0 -0.0
    outer loop
      vertex 0.39018064403225666 5.0 1.9615705608064609
      vertex 0.0 5.0 0.0
      vertex 0.7653668647301797 5.0 1.8477590650225735
    endloop
  endfacet
  facet normal 0.0 1.0 0.0
    outer loop
      vertex 0.39018064403225666 -5.0 1.9615705608064609
      vertex 0.0 -5.0 0.0
      vertex 1.2246467991473532e-16 -5.0 2.0
    endloop
  endfacet
  facet normal 0.0 -1.0 -0.0
    outer loop
      vertex 1.2246467991473532e-16 5.0 2.0
      vertex 0.0 5.0 0.0
      vertex 0.39018064403225666 5.0 1.9615705608064609
    endloop
  endfacet
  facet normal 0.0 1.0 0.0
    outer loop
      vertex 1.2246467991473532e-16 -5.0 2.0
      vertex 0.0 -5.0 0.0
      vertex -0.3901806440322564 -5.0 1.9615705608064609
    endloop
  endfacet
  facet normal 0.0 -1.0 0.0
    outer loop
      vertex -0.3901806440322564 5.0 1.9615705608064609
      vertex 0.0 5.0 0.0
      vertex 1.2246467991473532e-16 5.0 2.0
    endloop
  endfacet
  facet normal 0.0 1.0 0.0
    outer loop
      vertex -0.3901806440322564 -5.0 1.9615705608064609
      vertex 0.0 -5.0 0.0
      vertex -0.7653668647301795 -5.0 1.8477590650225735
    endloop
  endfacet
  facet normal 0.0 -1.0 0.0
    outer loop
      vertex -0.7653668647301795 5.0 1.8477590650225735
      vertex 0.0 5.0 0.0
      vertex -0.3901806440322564 5.0 1.9615705608064609
    endloop
  endfacet
  facet normal 0.0 1.0 0.0
    outer loop
      vertex -0.7653668647301795 -5.0 1.8477590650225735
      vertex 0.0 -5.0 0.0
      vertex -1.111140466039204 -5.0 1.662939224605091
    endloop
  endfacet
  facet normal 0.0 -1.0 0.0
    outer loop
      vertex -1.111140466039204 5.0 1.662939224605091
      vertex 0.0 5.0 0.0
      vertex -0.7653668647301795 5.0 1.8477590650225735
    endloop
  endfacet
  facet normal 0.0 1.0 0.0
    outer loop
      vertex -1.111140466039204 -5.0 1.662939224605091
      vertex 0.0 -5.0 0.0
      vertex -1.414213562373095 -5.0 1.4142135623730951
    endloop
  endfacet
  facet normal 0.0 -1.0 0.0
    outer loop
      vertex -1.414213562373095 5.0 1.4142135623730951
      vertex 0.0 5.0 0.0
      vertex -1.111140466039204 5.0 1.662939224605091
    endloop
  endfacet
  facet normal 0.0 1.0 0.0
    outer loop
      vertex -1.414213562373095 -5.0 1.4142135623730951
      vertex 0.0 -5.0 0.0
      vertex -1.6629392246050907 -5.0 1.1111404660392044
    endloop
  endfacet
  facet normal 0.0 -1.0 0.0
    outer loop
      vertex -1.6629392246050907 5.0 1.1111404660392044
      vertex 0.0 5.0 0.0
      vertex -1.414213562373095 5.0 1.4142135623730951
    endloop
  endfacet
  facet normal 0.0 1.0 0.0
    outer loop
      vertex -1.6629392246050907 -5.0 1.1111404660392044
      vertex 0.0 -5.0 0.0
      vertex -1.8477590650225735 -5.0 0.7653668647301798
    endloop
  endfacet
  facet normal 0.0 -1.0 0.0
    outer loop
      vertex -1.8477590650225735 5.0 0.7653668647301798
      vertex 0.0 5.0 0.0
      vertex -1.6629392246050907 5.0 1.1111404660392044
    endloop
  endfacet
  facet normal 0.0 1.0 0.0
    outer loop
      vertex -1.8477590650225735 -5.0 0.7653668647301798
      vertex 0.0 -5.0 0.0
      vertex -1.9615705608064609 -5.0 0.3901806440322572
    endloop
  endfacet
  facet normal 0.0 -1.0 0.0
    outer loop
      vertex -1.9615705608064609 5.0 0.3901806440322572
      vertex 0.0 5.0 0.0
      vertex -1.8477590650225735 5.0 0.7653668647301798
    endloop
  endfacet
  facet normal 0.0 1.0 0.0
    outer loop
      vertex -1.9615705608064609 -5.0 0.3901806440322572
      vertex 0.0 -5.0 0.0
      vertex -2.0 -5.0 2.4492935982947064e-16
    endloop
  endfacet
  facet normal 0.0 -1.0 0.0
    outer loop
      vertex -2.0 5.0 2.4492935982947064e-16
      vertex 0.0 5.0 0.0
      vertex -1.9615705608064609 5.0 0.3901806440322572
    endloop
  endfacet
  facet normal 0.0 1.0 0.0
    outer loop
      vertex -2.0 -5.0 2.4492935982947064e-16
      vertex 0.0 -5.0 0.0
      vertex -1.9615705608064609 -5.0 -0.3901806440322567
    endloop
  endfacet
  facet normal 0.0 -1.0 0.0
    outer loop
      vertex -1.9615705608064609 5.0 -0.3901806440322567
      vertex 0.0 5.0 0.0
      vertex -2.0 5.0 2.4492935982947064e-16
    endloop
  endfacet
  facet normal -0.0 1.0 0.0
    outer loop
      vertex -1.9615705608064609 -5.0 -0.3901806440322567
      vertex 0.0 -5.0 0.0
      vertex -1.8477590650225737 -5.0 -0.7653668647301793
    endloop
  endfacet
  facet normal 0.0 -1.0 0.0
    outer loop
      vertex -1.8477590650225737 5.0 -0.7653668647301793
      vertex 0.0 5.0 0.0
      vertex -1.9615705608064609 5.0 -0.3901806440322567
    endloop
  endfacet
  facet normal -0.0 1.0 0.0
    outer loop
      vertex -1.8477590650225737 -5.0 -0.7653668647301793
      vertex 0.0 -5.0 0.0
      vertex -1.662939224605091 -5.0 -1.111140466039204
    endloop
  endfacet
  facet normal 0.0 -1.0 0.0
    outer loop
      vertex -1.662939224605091 5.0 -1.111140466039204
      vertex 0.0 5.0 0.0
      vertex -1.8477590650225737 5.0 -0.7653668647301793
    endloop
  endfacet
  facet normal -0.0 1.0 0.0
    outer loop
      vertex -1.662939224605091 -5.0 -1.111140466039204
      vertex 0.0 -5.0 0.0
      vertex -1.4142135623730954 -5.0 -1.414213562373095
    endloop
  endfacet
  facet normal 0.0 -1.0 0.0
    outer loop
      vertex -1.4142135623730954 5.0 -1.414213562373095
      vertex 0.0 5.0 0.0
      vertex -1.662939224605091 5.0 -1.111140466039204
    endloop
  endfacet
  facet normal -0.0 1.0 0.0
    outer loop
      vertex -1.4142135623730954 -5.0 -1.414213562373095
      vertex 0.0 -5.0 0.0
      vertex -1.1111404660392044 -5.0 -1.6629392246050905
    endloop
  endfacet
  facet normal 0.0 -1.0 0.0
    outer loop
      vertex -1.1111404660392044 5.0 -1.6629392246050905
      vertex 0.0 5.0 0.0
      vertex -1.4142135623730954 5.0 -1.414213562373095
    endloop
  endfacet
  facet normal -0.0 1.0 0.0
    outer loop
      vertex -1.1111404660392044 -5.0 -1.6629392246050905
      vertex 0.0 -5.0 0.0
      vertex -0.7653668647301807 -5.0 -1.847759065022573
    endloop
  endfacet
  facet normal 0.0 -1.0 0.0
    outer loop
      vertex -0.7653668647301807 5.0 -1.847759065022573
      vertex 0.0 5.0 0.0
      vertex -1.1111404660392044 5.0 -1.6629392246050905
    endloop
  endfacet
  facet normal -0.0 1.0 0.0
    outer loop
      vertex -0.7653668647301807 -5.0 -1.847759065022573
      vertex 0.0 -5.0 0.0
      vertex -0.39018064403225733 -5.0 -1.9615705608064606
    endloop
  endfacet
  facet normal 0.0 -1.0 0.0
    outer loop
      vertex -0.39018064403225733 5.0 -1.9615705608064606
      vertex 0.0 5.0 0.0
      vertex -0.7653668647301807 5.0 -1.847759065022573
    endloop
  endfacet
  facet normal -0.0 1.0 0.0
    outer loop
      vertex -0.39018064403225733 -5.0 -1.9615705608064606
      vertex 0.0 -5.0 0.0
      vertex -3.6739403974420594e-16 -5.0 -2.0
    endloop
  endfacet
  facet normal 0.0 -1.0 0.0
    outer loop
      vertex -3.6739403974420594e-16 5.0 -2.0
      vertex 0.0 5.0 0.0
      vertex -0.39018064403225733 5.0 -1.9615705608064606
    endloop
  endfacet
  facet normal 0.0 1.0 0.0
    outer loop
      vertex -3.6739403974420594e-16 -5.0 -2.0
      vertex 0.0 -5.0 0.0
      vertex 0.3901806440322566 -5.0 -1.9615705608064609
    endloop
  endfacet
  facet normal -0.0 -1.0 0.0
    outer loop
      vertex 0.3901806440322566 5.0 -1.9615705608064609
      vertex 0.0 5.0 0.0
      vertex -3.6739403974420594e-16 5.0 -2.0
    endloop
  endfacet
  facet normal 0.0 1.0 -0.0
    outer loop
      vertex 0.3901806440322566 -5.0 -1.9615705608064609
      vertex 0.0 -5.0 0.0
      vertex 0.76536686473018 -5.0 -1.8477590650225733
    endloop
  endfacet
  facet normal -0.0 -1.0 0.0
    outer loop
      vertex 0.76536686473018 5.0 -1.8477590650225733
      vertex 0.0 5.0 0.0
      vertex 0.3901806440322566 5.0 -1.9615705608064609
    endloop
  endfacet
  facet normal 0.0 1.0 -0.0
    outer loop
      vertex 0.76536686473018 -5.0 -1.8477590650225733
      vertex 0.0 -5.0 0.0
      vertex 1.1111404660392037 -5.0 -1.662939224605091
    endloop
  endfacet
  facet normal -0.0 -1.0 0.0
    outer loop
      vertex 1.1111404660392037 5.0 -1.662939224605091
      vertex 0.0 5.0 0.0
      vertex 0.76536686473018 5.0 -1.8477590650225733
    endloop
  endfacet
  facet normal 0.0 1.0 -0.0
    outer loop
      vertex 1.1111404660392037 -5.0 -1.662939224605091
      vertex 0.0 -5.0 0.0
      vertex 1.4142135623730947 -5.0 -1.4142135623730954
    endloop
  endfacet
  facet normal -0.0 -1.0 0.0
    outer loop
      vertex 1.4142135623730947 5.0 -1.4142135623730954
      vertex 0.0 5.0 0.0
      vertex 1.1111404660392037 5.0 -1.662939224605091
    endloop
  endfacet
  facet normal 0.0 1.0 -0.0
    outer loop
      vertex 1.4142135623730947 -5.0 -1.4142135623730954
      vertex 0.0 -5.0 0.0
      vertex 1.6629392246050905 -5.0 -1.1111404660392044
    endloop
  endfacet
  facet normal -0.0 -1.0 0.0
    outer loop
      vertex 1.6629392246050905 5.0 -1.1111404660392044
      vertex 0.0 5.0 0.0
      vertex 1.4142135623730947 5.0 -1.4142135623730954
    endloop
  endfacet
  facet normal 0.0 1.0 -0.0
    outer loop
      vertex 1.6629392246050905 -5.0 -1.1111404660392044
      vertex 0.0 -5.0 0.0
      vertex 1.847759065022573 -5.0 -0.7653668647301808
    endloop
  endfacet
  facet normal -0.0 -1.0 0.0
    outer loop
      vertex 1.847759065022573 5.0 -0.7653668647301808
      vertex 0.0 5.0 0.0
      vertex 1.6629392246050905 5.0 -1.1111404660392044
    endloop
  endfacet
  facet normal 0.0 1.0 -0.0
    outer loop
      vertex 1.847759065022573 -5.0 -0.7653668647301808
      vertex 0.0 -5.0 0.0
      vertex 1.9615705608064606 -5.0 -0.39018064403225744
    endloop
  endfacet
  facet normal -0.0 -1.0 0.0
    outer loop
      vertex 1.9615705608064606 5.0 -0.39018064403225744
      vertex 0.0 5.0 0.0
      vertex 1.847759065022573 5.0 -0.7653668647301808
    endloop
  endfacet
  facet normal 0.0 1.0 -0.0
    outer loop
      vertex 1.9615705608064606 -5.0 -0.39018064403225744
      vertex 0.0 -5.0 0.0
      vertex 2.0 -5.0 0.0
    endloop
  endfacet
  facet normal -0.0 -1.0 0.0
    outer loop
      vertex 2.0 5.0 0.0
      vertex 0.0 5.0 0.0
      vertex 1.9615705608064606 5.0 -0.39018064403225744
    endloop
  endfacet
endsolid generated
