solid generated
  facet normal -55.27864045000422 55.27864045000421 55.27864045000422
    outer loop
      vertex -5.257311121191337 8.5065080835204 0.0
      vertex -8.5065080835204 0.0 5.257311121191337
      vertex 0.0 5.257311121191337 8.5065080835204
    endloop
  endfacet
  facet normal -0.0 89.4427190999916 34.16407864998738
    outer loop
      vertex -5.257311121191337 8.5065080835204 0.0
      vertex 0.0 5.257311121191337 8.5065080835204
      vertex 5.257311121191337 8.5065080835204 0.0
    endloop
  endfacet
  facet normal 0.0 89.4427190999916 -34.16407864998738
    outer loop
      vertex -5.257311121191337 8.5065080835204 0.0
      vertex 5.257311121191337 8.5065080835204 0.0
      vertex 0.0 5.257311121191337 -8.5065080835204
    endloop
  endfacet
  facet normal -55.27864045000422 55.27864045000421 -55.27864045000422
    outer loop
      vertex -5.257311121191337 8.5065080835204 0.0
      vertex 0.0 5.257311121191337 -8.5065080835204
      vertex -8.5065080835204 0.0 -5.257311121191337
    endloop
  endfacet
  facet normal -89.4427190999916 34.16407864998738 0.0
    outer loop
      vertex -5.257311121191337 8.5065080835204 0.0
      vertex -8.5065080835204 0.0 -5.257311121191337
      vertex -8.5065080835204 0.0 5.257311121191337
    endloop
  endfacet
  facet normal 55.27864045000422 55.27864045000421 55.27864045000422
    outer loop
      vertex 5.257311121191337 8.5065080835204 0.0
      vertex 0.0 5.257311121191337 8.5065080835204
      vertex 8.5065080835204 0.0 5.257311121191337
    endloop
  endfacet
  facet normal -34.16407864998738 0.0 89.4427190999916
    outer loop
      vertex 0.0 5.257311121191337 8.5065080835204
      vertex -8.5065080835204 0.0 5.257311121191337
      vertex 0.0 -5.257311121191337 8.5065080835204
    endloop
  endfacet
  facet normal -89.4427190999916 -34.16407864998738 -0.0
    outer loop
      vertex -8.5065080835204 0.0 5.257311121191337
      vertex -8.5065080835204 0.0 -5.257311121191337
      vertex -5.257311121191337 -8.5065080835204 0.0
    endloop
  endfacet
  facet normal -34.16407864998738 0.0 -89.4427190999916
    outer loop
      vertex -8.5065080835204 0.0 -5.257311121191337
      vertex 0.0 5.257311121191337 -8.5065080835204
      vertex 0.0 -5.257311121191337 -8.5065080835204
    endloop
  endfacet
  facet normal 55.27864045000422 55.27864045000422 -55.27864045000421
    outer loop
      vertex 0.0 5.257311121191337 -8.5065080835204
      vertex 5.257311121191337 8.5065080835204 0.0
      vertex 8.5065080835204 0.0 -5.257311121191337
    endloop
  endfacet
  facet normal 55.27864045000422 -55.27864045000421 55.27864045000422
    outer loop
      vertex 5.257311121191337 -8.5065080835204 0.0
      vertex 8.5065080835204 0.0 5.257311121191337
      vertex 0.0 -5.257311121191337 8.5065080835204
    endloop
  endfacet
  facet normal 0.0 -89.4427190999916 34.16407864998738
    outer loop
      vertex 5.257311121191337 -8.5065080835204 0.0
      vertex 0.0 -5.257311121191337 8.5065080835204
      vertex -5.257311121191337 -8.5065080835204 0.0
    endloop
  endfacet
  facet normal -0.0 -89.4427190999916 -34.16407864998738
    outer loop
      vertex 5.257311121191337 -8.5065080835204 0.0
      vertex -5.257311121191337 -8.5065080835204 0.0
      vertex 0.0 -5.257311121191337 -8.5065080835204
    endloop
  endfacet
  facet normal 55.27864045000422 -55.27864045000421 -55.27864045000422
    outer loop
      vertex 5.257311121191337 -8.5065080835204 0.0
      vertex 0.0 -5.257311121191337 -8.5065080835204
      vertex 8.5065080835204 0.0 -5.257311121191337
    endloop
  endfacet
  facet normal 89.4427190999916 -34.16407864998738 0.0
    outer loop
      vertex 5.257311121191337 -8.5065080835204 0.0
      vertex 8.5065080835204 0.0 -5.257311121191337
      vertex 8.5065080835204 0.0 5.257311121191337
    endloop
  endfacet
  facet normal 34.16407864998738 -0.0 89.4427190999916
    outer loop
      vertex 0.0 -5.257311121191337 8.5065080835204
      vertex 8.5065080835204 0.0 5.257311121191337
      vertex 0.0 5.257311121191337 8.5065080835204
    endloop
  endfacet
  facet normal -55.27864045000422 -55.27864045000421 55.27864045000422
    outer loop
      vertex -5.257311121191337 -8.5065080835204 0.0
      vertex 0.0 -5.257311121191337 8.5065080835204
      vertex -8.5065080835204 0.0 5.257311121191337
    endloop
  endfacet
  facet normal -55.27864045000422 -55.27864045000422 -55.27864045000421
    outer loop
      vertex 0.0 -5.257311121191337 -8.5065080835204
      vertex -5.257311121191337 -8.5065080835204 0.0
      vertex -8.5065080835204 0.0 -5.257311121191337
    endloop
  endfacet
  facet normal 34.16407864998738 0.0 -89.4427190999916
    outer loop
      vertex 8.5065080835204 0.0 -5.257311121191337
      vertex 0.0 -5.257311121191337 -8.5065080835204
      vertex 0.0 5.257311121191337 -8.5065080835204
    endloop
  endfacet
  facet normal 89.4427190999916 34.16407864998738 0.0
    outer loop
      vertex 8.5065080835204 0.0 5.257311121191337
      vertex 8.5065080835204 0.0 -5.257311121191337
      vertex 5.257311121191337 8.5065080835204 0.0
    endloop
  endfacet
endsolid generated
