solid generated
  facet normal 0.0 0.0 -400.0
    outer loop
      vertex -10.0 -10.0 -10.0
      vertex 10.0 10.0 -10.0
      vertex 10.0 -10.0 -10.0
    endloop
  endfacet
  facet normal 0.0 0.0 -400.0
    outer loop
      vertex -10.0 -10.0 -10.0
      vertex -10.0 10.0 -10.0
      vertex 10.0 10.0 -10.0
    endloop
  endfacet
  facet normal 0.0 0.0 400.0
    outer loop
      vertex -10.0 -10.0 10.0
      vertex 10.0 -10.0 10.0
      vertex 10.0 10.0 10.0
    endloop
  endfacet
  facet normal 0.0 0.0 400.0
    outer loop
      vertex -10.0 -10.0 10.0
      vertex 10.0 10.0 10.0
      vertex -10.0 10.0 10.0
    endloop
  endfacet
  facet normal 0.0 -400.0 0.0
    outer loop
      vertex -10.0 -10.0 -10.0
      vertex 10.0 -10.0 -10.0
      vertex 10.0 -10.0 10.0
    endloop
  endfacet
  facet normal 0.0 -400.0 0.0
    outer loop
      vertex -10.0 -10.0 -10.0
      vertex 10.0 -10.0 10.0
      vertex -10.0 -10.0 10.0
    endloop
  endfacet
  facet normal 0.0 400.0 0.0
    outer loop
      vertex 10.0 10.0 -10.0
      vertex -10.0 10.0 -10.0
      vertex -10.0 10.0 10.0
    endloop
  endfacet
  facet normal 0.0 400.0 -0.0
    outer loop
      vertex 10.0 10.0 -10.0
      vertex -10.0 10.0 10.0
      vertex 10.0 10.0 10.0
    endloop
  endfacet
  facet normal -400.0 0.0 0.0
    outer loop
      vertex -10.0 -10.0 -10.0
      vertex -10.0 -10.0 10.0
      vertex -10.0 10.0 10.0
    endloop
  endfacet
  facet normal -400.0 0.0 0.0
    outer loop
      vertex -10.0 -10.0 -10.0
      vertex -10.0 10.0 10.0
      vertex -10.0 10.0 -10.0
    endloop
  endfacet
  facet normal 400.0 0.0 0.0
    outer loop
      vertex 10.0 -10.0 -10.0
      vertex 10.0 10.0 -10.0
      vertex 10.0 10.0 10.0
    endloop
  endfacet
  facet normal 400.0 0.0 0.0
    outer loop
      vertex 10.0 -10.0 -10.0
      vertex 10.0 10.0 10.0
      vertex 10.0 -10.0 10.0
    endloop
  endfacet
endsolid generated
